<?xml version="1.0" encoding="UTF-8"?>
<svg id="Layer_1" data-name="Layer 1" xmlns="http://www.w3.org/2000/svg" version="1.1" viewBox="0 0 627.5 770.5">
  <defs>
    <style>
      .cls-1 {
        fill: #a50885;
      }

      .cls-1, .cls-2, .cls-3, .cls-4, .cls-5 {
        stroke-width: 0px;
      }

      .cls-2 {
        fill: #1d1d1b;
      }

      .cls-3 {
        fill: #e03dcd;
      }

      .cls-4 {
        fill: #faa7f5;
      }

      .cls-5 {
        fill: #ffe4fe;
      }
    </style>
  </defs>
  <g>
    <path class="cls-2" d="M188.2,731.7h-18.6l-46.5-58.1v58.1h-14.5v-111.1h14.5v51.4l44.6-51.4h16.6l-44.4,51.2,48.3,59.9Z"/>
    <path class="cls-2" d="M198.6,731.7v-111.1h62.3v13.1h-47.7v33.7h38.2v13.1h-38.2v51.2h-14.5Z"/>
    <path class="cls-2" d="M298.1,733.8c-5.9,0-11.1-1-15.7-3-4.6-2-8.5-4.8-11.6-8.5-3.2-3.6-5.6-8-7.3-13.1-1.7-5.1-2.5-10.8-2.5-17s.8-11.7,2.5-16.8c1.7-5.1,4.1-9.5,7.3-13.2,3.2-3.7,7.1-6.5,11.7-8.5,4.6-2,9.8-3,15.6-3s11,1,15.6,3c4.6,2,8.5,4.8,11.7,8.5,3.2,3.6,5.7,8,7.3,13.1,1.7,5.1,2.5,10.8,2.5,17s-.8,12-2.5,17.1c-1.7,5.1-4.1,9.5-7.3,13.1-3.2,3.6-7.1,6.4-11.7,8.4-4.6,1.9-9.9,2.9-15.6,2.9ZM298.1,721.2c7.7,0,13.4-2.7,17.1-8,3.7-5.3,5.5-12.3,5.5-20.9s-.5-8-1.4-11.5c-.9-3.5-2.3-6.5-4.2-9.1-1.8-2.6-4.2-4.6-7-6.1-2.8-1.5-6.2-2.2-10-2.2-7.5,0-13.1,2.7-16.9,8-3.8,5.3-5.7,12.3-5.7,20.9s1.8,16,5.5,21.1c3.7,5.2,9.4,7.8,17.1,7.8Z"/>
    <path class="cls-2" d="M394.8,664.7c-.5-.2-1.6-.4-3.1-.6-1.5-.2-3.1-.3-4.7-.3-7.5,0-13.4,3.1-17.8,9.3-4.4,6.2-6.6,14.7-6.6,25.6v33h-14.1v-79h13l.6,13.4c.9-1.8,2.2-3.6,3.7-5.3,1.5-1.7,3.3-3.3,5.5-4.6,2.1-1.3,4.5-2.4,7.2-3.2,2.7-.8,5.7-1.3,8.9-1.3s3.2.1,5.1.4c1.9.3,3.1.4,3.4.6l-1.3,12Z"/>
    <path class="cls-2" d="M421.5,731.7h-14.1v-79h13l.6,10.7c.7-1.3,1.7-2.6,3-4.1,1.3-1.5,2.8-2.9,4.7-4.2,1.9-1.3,4.2-2.4,6.9-3.2,2.7-.8,5.8-1.3,9.2-1.3,6.1,0,11,1.3,14.7,3.9,3.7,2.6,6.5,6.1,8.5,10.5.9-1.6,2.2-3.2,3.7-5,1.5-1.7,3.4-3.3,5.5-4.7,2.2-1.4,4.6-2.5,7.4-3.4,2.8-.9,5.9-1.3,9.4-1.3,9.3,0,16.1,2.6,20.5,7.8,4.4,5.2,6.6,12.3,6.6,21.3v52h-14.1v-49.6c0-7.3-1.3-12.3-3.9-15-2.6-2.7-6.3-4.1-11.3-4.1s-7,.9-9.6,2.7c-2.6,1.8-4.7,4.1-6.4,7-1.7,2.9-2.9,6.2-3.6,9.9-.7,3.7-1.1,7.5-1.1,11.4v37.8h-14.1v-49.6c0-7.3-1.3-12.3-4-15-2.7-2.7-6.4-4.1-11.1-4.1s-7,.9-9.6,2.8c-2.6,1.8-4.7,4.2-6.4,7.1-1.7,2.9-2.9,6.2-3.6,9.9-.7,3.7-1.1,7.4-1.1,11.2v37.8Z"/>
  </g>
  <path class="cls-2" d="M506,549.6H121.5c-17.3,0-31.4-14.1-31.4-31.4V89.4c0-17.3,14.1-31.4,31.4-31.4h384.5c17.3,0,31.4,14.1,31.4,31.4v428.8c0,17.3-14.1,31.4-31.4,31.4ZM121.5,71.3c-10,0-18.1,8.1-18.1,18.1v428.8c0,10,8.1,18.1,18.1,18.1h384.5c10,0,18.1-8.1,18.1-18.1V89.4c0-10-8.1-18.1-18.1-18.1H121.5Z"/>
  <path class="cls-5" d="M139.8,487.1c0,9.2,7.5,16.7,16.7,16.7h156.4l-173.1-100v83.2Z"/>
  <polygon class="cls-5" points="419.5 165.3 486.2 203.7 486.2 127.5 419.5 165.3"/>
  <path class="cls-5" d="M418.7,503.8h50.7c9.2,0,16.7-7.5,16.7-16.7v-83.3l-67.7,39.1.2,61Z"/>
  <polygon class="cls-5" points="312.9 503.8 381.7 503.8 381.6 464.2 312.9 503.8"/>
  <path class="cls-5" d="M382.4,143.8l70.9-40.3H156.5c-9.2,0-16.7,7.5-16.7,16.7v83.3l173.1-100,69.5,40.2Z"/>
  <polygon class="cls-3" points="381.3 386.4 312.9 425.7 312.9 503.8 381.6 464.2 381.3 386.4"/>
  <polygon class="cls-3" points="312.9 383 312.9 383 381.1 343.8 380.8 264.5 312.9 303.7 312.9 383"/>
  <polygon class="cls-3" points="417.7 244.1 418.5 442.9 486.2 403.8 486.2 203.7 417 243.7 417.7 244.1"/>
  <polygon class="cls-4" points="207.8 243.1 207.8 243 382.4 143.8 312.9 103.7 139.8 203.6 139.8 203.8 207.8 243.1"/>
  <polygon class="cls-4" points="353 203 417 243.7 486.2 203.7 419.5 165.3 353 203"/>
  <polygon class="cls-4" points="380.8 264.5 380.8 264.5 316.6 223.7 244.8 264.4 312.9 303.7 380.8 264.5"/>
  <polygon class="cls-1" points="207.8 243.1 139.8 203.8 139.8 282 207.8 321.7 207.8 243.1"/>
  <polygon class="cls-1" points="244.8 343.3 312.9 383 312.9 303.7 244.8 264.4 244.8 264.4 244.8 343.3"/>
  <polygon class="cls-1" points="312.9 425.7 139.8 324.9 139.8 403.9 312.9 503.8 312.9 425.7 312.9 425.7"/>
</svg>