<?xml version="1.0" encoding="UTF-8" standalone="no"?>
<svg
   id="Layer_1"
   data-name="Layer 1"
   version="1.1"
   viewBox="0 0 627.5 627.5"
   sodipodi:docname="Kform_logo-square.svg"
   inkscape:version="1.2.1 (9c6d41e410, 2022-07-14)"
   width="627.5"
   height="627.5"
   inkscape:export-filename="KForm-transparent-square-noname.png"
   inkscape:export-xdpi="96"
   inkscape:export-ydpi="96"
   xmlns:inkscape="http://www.inkscape.org/namespaces/inkscape"
   xmlns:sodipodi="http://sodipodi.sourceforge.net/DTD/sodipodi-0.dtd"
   xmlns="http://www.w3.org/2000/svg"
   xmlns:svg="http://www.w3.org/2000/svg">
  <sodipodi:namedview
     id="namedview229"
     pagecolor="#ffffff"
     bordercolor="#000000"
     borderopacity="0.25"
     inkscape:showpageshadow="2"
     inkscape:pageopacity="0.0"
     inkscape:pagecheckerboard="0"
     inkscape:deskcolor="#d1d1d1"
     showgrid="false"
     inkscape:zoom="1.1031798"
     inkscape:cx="311.37265"
     inkscape:cy="385.25"
     inkscape:window-width="1920"
     inkscape:window-height="1027"
     inkscape:window-x="-8"
     inkscape:window-y="-8"
     inkscape:window-maximized="1"
     inkscape:current-layer="Layer_1" />
  <defs
     id="defs184">
    <style
       id="style182">
      .cls-1 {
        fill: #a50885;
      }

      .cls-1, .cls-2, .cls-3, .cls-4, .cls-5 {
        stroke-width: 0px;
      }

      .cls-2 {
        fill: #1d1d1b;
      }

      .cls-3 {
        fill: #e03dcd;
      }

      .cls-4 {
        fill: #faa7f5;
      }

      .cls-5 {
        fill: #ffe4fe;
      }
    </style>
  </defs>
  <g
     id="g385"
     transform="translate(0,9.95)">
    <path
       class="cls-2"
       d="M 506,549.6 H 121.5 c -17.3,0 -31.4,-14.1 -31.4,-31.4 V 89.4 C 90.1,72.1 104.2,58 121.5,58 H 506 c 17.3,0 31.4,14.1 31.4,31.4 v 428.8 c 0,17.3 -14.1,31.4 -31.4,31.4 z M 121.5,71.3 c -10,0 -18.1,8.1 -18.1,18.1 v 428.8 c 0,10 8.1,18.1 18.1,18.1 H 506 c 10,0 18.1,-8.1 18.1,-18.1 V 89.4 c 0,-10 -8.1,-18.1 -18.1,-18.1 z"
       id="path198" />
    <path
       class="cls-5"
       d="m 139.8,487.1 c 0,9.2 7.5,16.7 16.7,16.7 H 312.9 L 139.8,403.8 V 487 Z"
       id="path200" />
    <polygon
       class="cls-5"
       points="486.2,203.7 486.2,127.5 419.5,165.3 "
       id="polygon202" />
    <path
       class="cls-5"
       d="m 418.7,503.8 h 50.7 c 9.2,0 16.7,-7.5 16.7,-16.7 v -83.3 l -67.7,39.1 0.2,61 z"
       id="path204" />
    <polygon
       class="cls-5"
       points="381.7,503.8 381.6,464.2 312.9,503.8 "
       id="polygon206" />
    <path
       class="cls-5"
       d="m 382.4,143.8 70.9,-40.3 H 156.5 c -9.2,0 -16.7,7.5 -16.7,16.7 v 83.3 l 173.1,-100 69.5,40.2 z"
       id="path208" />
    <polygon
       class="cls-3"
       points="381.3,386.4 312.9,425.7 312.9,503.8 381.6,464.2 "
       id="polygon210" />
    <polygon
       class="cls-3"
       points="312.9,303.7 312.9,383 381.1,343.8 380.8,264.5 "
       id="polygon212" />
    <polygon
       class="cls-3"
       points="417,243.7 417.7,244.1 418.5,442.9 486.2,403.8 486.2,203.7 "
       id="polygon214" />
    <polygon
       class="cls-4"
       points="139.8,203.6 139.8,203.8 207.8,243.1 207.8,243 382.4,143.8 312.9,103.7 "
       id="polygon216" />
    <polygon
       class="cls-4"
       points="353,203 417,243.7 486.2,203.7 419.5,165.3 "
       id="polygon218" />
    <polygon
       class="cls-4"
       points="312.9,303.7 380.8,264.5 316.6,223.7 244.8,264.4 "
       id="polygon220" />
    <polygon
       class="cls-1"
       points="207.8,243.1 139.8,203.8 139.8,282 207.8,321.7 "
       id="polygon222" />
    <polygon
       class="cls-1"
       points="244.8,264.4 244.8,343.3 312.9,383 312.9,303.7 244.8,264.4 "
       id="polygon224" />
    <polygon
       class="cls-1"
       points="312.9,425.7 139.8,324.9 139.8,403.9 312.9,503.8 "
       id="polygon226" />
  </g>
</svg>
